<?xml version="1.0" standalone="no"?>
<!DOCTYPE svg PUBLIC "-//W3C//DTD SVG 20010904//EN"
 "http://www.w3.org/TR/2001/REC-SVG-20010904/DTD/svg10.dtd">
<svg version="1.0" xmlns="http://www.w3.org/2000/svg"
 width="900.000000pt" height="900.000000pt" viewBox="0 0 900.000000 900.000000"
 preserveAspectRatio="xMidYMid meet">
<metadata>
Created by potrace 1.10, written by Peter Selinger 2001-2011
</metadata>
<g transform="translate(0.000000,900.000000) scale(0.100000,-0.100000)"
fill="#000000" stroke="none">
<path d="M0 4500 l0 -4500 4500 0 4500 0 0 4500 0 4500 -4500 0 -4500 0 0
-4500z m7420 2620 c0 -18 -58 -126 -85 -158 -14 -16 -32 -47 -41 -69 -9 -21
-33 -63 -54 -93 -20 -31 -41 -67 -45 -80 -4 -14 -17 -36 -30 -50 -12 -14 -31
-41 -40 -60 -45 -87 -86 -135 -445 -511 -47 -49 -123 -130 -170 -180 -73 -78
-110 -116 -150 -156 -5 -4 -28 -29 -52 -54 -197 -211 -319 -339 -348 -369 -20
-19 -60 -64 -90 -100 -30 -36 -57 -67 -60 -70 -13 -13 -80 -121 -80 -129 0
-32 47 -18 145 43 28 17 64 39 80 48 127 72 176 101 181 109 3 5 36 25 72 45
75 39 157 89 217 131 22 15 60 39 85 52 25 13 59 35 76 47 17 13 34 24 39 24
4 0 45 23 91 50 46 28 87 50 91 50 4 0 26 14 47 30 75 57 106 23 41 -46 -19
-20 -35 -42 -35 -48 0 -6 -10 -22 -21 -36 -11 -14 -36 -50 -56 -80 -39 -60
-68 -90 -251 -259 -91 -84 -130 -128 -149 -166 l-26 -52 30 -89 c95 -279 108
-332 129 -529 23 -225 6 -566 -36 -717 -11 -40 -31 -114 -45 -165 -14 -50 -43
-128 -65 -171 -22 -44 -40 -86 -40 -93 0 -7 -6 -20 -14 -28 -7 -9 -31 -50 -51
-91 -21 -41 -49 -90 -62 -108 -50 -67 -87 -155 -87 -207 0 -59 13 -86 109
-213 38 -51 79 -105 90 -120 11 -15 53 -66 93 -112 40 -47 76 -90 80 -95 4 -6
32 -40 62 -77 30 -36 73 -90 95 -118 22 -28 54 -66 71 -83 17 -18 43 -49 58
-70 23 -31 25 -38 12 -43 -9 -3 -27 1 -41 10 -13 9 -28 16 -33 16 -5 0 -40 20
-78 45 -37 25 -72 45 -78 45 -5 0 -24 11 -42 25 -18 14 -43 29 -56 34 -31 12
-156 113 -245 198 -39 37 -135 129 -213 203 -340 325 -547 536 -554 563 -4 16
-17 45 -30 65 -27 44 -66 145 -66 172 0 23 22 26 47 6 49 -40 158 -110 241
-155 87 -48 97 -51 165 -51 l73 0 52 50 c29 27 52 54 52 59 0 5 11 22 24 38
29 35 100 169 117 221 6 20 17 51 24 67 12 30 33 84 59 153 8 20 24 100 35
177 47 316 47 345 11 575 -10 63 -21 140 -25 170 -4 30 -17 78 -30 105 -12 28
-26 61 -30 75 -21 70 -55 118 -101 144 -26 14 -54 26 -63 26 -19 0 -102 -28
-116 -39 -5 -5 -33 -16 -62 -25 -29 -10 -68 -28 -88 -42 -20 -13 -42 -24 -49
-24 -6 0 -39 -16 -71 -35 -101 -61 -124 -30 -46 61 28 33 51 63 51 67 0 5 12
24 27 43 19 26 23 38 15 46 -16 16 -71 -16 -129 -74 -26 -27 -51 -48 -55 -48
-18 0 -278 -276 -300 -318 -22 -45 -23 -103 -1 -162 13 -36 17 -81 17 -220 0
-160 -2 -180 -24 -235 -13 -33 -29 -69 -35 -80 -7 -11 -15 -32 -19 -47 -6 -27
-93 -135 -156 -194 -58 -55 -154 -122 -185 -130 -17 -4 -57 -18 -90 -31 -33
-14 -100 -31 -148 -38 -76 -12 -101 -12 -180 1 -51 8 -124 26 -164 39 -39 14
-94 25 -122 25 -54 0 -70 -11 -202 -133 -89 -82 -317 -288 -463 -417 -194
-172 -265 -236 -313 -281 -29 -27 -57 -49 -62 -49 -16 0 -13 61 4 79 7 9 35
57 61 106 25 50 51 95 56 102 10 13 32 54 147 278 40 77 79 145 88 152 8 7 13
19 10 28 -4 9 -1 15 7 15 7 0 18 11 24 25 7 14 19 28 27 31 8 4 15 13 15 20 0
8 8 18 18 21 9 4 79 70 156 147 76 78 188 192 249 254 61 61 118 112 127 112
9 0 23 -16 33 -37 26 -59 132 -156 212 -194 68 -33 74 -34 190 -34 116 0 122
1 180 33 33 17 65 32 70 32 15 0 96 88 138 151 70 103 94 248 64 374 -18 75
-101 194 -172 247 -33 25 -71 51 -84 58 -33 17 -169 50 -207 50 -49 0 -186
-39 -220 -63 -68 -49 -114 -92 -114 -109 0 -10 -4 -18 -9 -18 -29 0 -5 -104
29 -125 5 -3 10 -17 10 -30 0 -30 -8 -32 -157 -39 -90 -4 -122 -10 -169 -31
-83 -37 -90 -32 -98 73 -8 103 -33 218 -53 249 -26 39 -11 53 57 53 70 0 105
15 160 68 102 98 122 115 177 143 32 17 63 35 68 39 33 24 235 70 308 70 64 0
227 -27 305 -50 95 -28 112 -18 301 171 49 49 69 78 78 110 6 24 10 45 8 47
-2 2 -27 -13 -55 -32 -59 -40 -80 -36 -80 14 0 47 -57 110 -116 130 -27 10
-64 25 -81 34 -49 25 -206 46 -344 46 -142 0 -273 -19 -369 -54 -36 -13 -78
-27 -93 -31 -35 -7 -172 -85 -246 -138 -57 -42 -97 -109 -84 -144 3 -10 26
-41 50 -69 35 -42 41 -53 30 -63 -17 -14 -158 28 -227 67 -49 28 -48 27 -222
200 -64 65 -123 122 -130 129 -240 224 -586 562 -640 625 -20 24 -53 61 -72
84 -35 41 -75 95 -139 189 -19 28 -50 69 -68 92 -19 23 -50 65 -69 93 -19 29
-50 70 -67 93 -66 84 -69 117 -8 82 58 -34 203 -134 210 -145 6 -10 75 -58
149 -105 18 -11 53 -37 79 -59 26 -21 60 -46 76 -55 36 -20 109 -73 136 -98
11 -11 47 -40 80 -65 53 -41 385 -369 385 -381 0 -9 219 -221 241 -233 55 -30
167 -4 251 59 18 14 44 28 58 32 14 4 52 20 85 35 76 35 129 52 285 91 119 30
134 32 325 32 185 1 208 -1 307 -26 59 -15 133 -27 163 -27 92 0 169 51 251
165 24 35 51 68 59 75 8 7 24 32 34 55 10 23 24 46 30 49 14 9 70 134 71 158
0 4 -21 8 -47 10 -71 4 -68 26 10 101 36 34 91 82 122 107 31 25 87 70 124
100 38 30 90 71 116 90 26 19 66 54 90 78 43 42 85 56 85 27 0 -8 -18 -50 -39
-93 -22 -42 -43 -90 -47 -107 -4 -16 -18 -46 -31 -65 -12 -19 -23 -40 -23 -46
0 -14 -124 -266 -149 -304 -10 -14 -44 -81 -76 -150 -33 -69 -68 -138 -80
-155 -11 -16 -36 -66 -54 -110 -19 -44 -40 -87 -48 -96 -7 -8 -13 -23 -13 -31
0 -9 -9 -35 -20 -59 -18 -40 -27 -89 -16 -89 2 0 11 -3 20 -6 10 -4 16 -1 16
7 0 8 15 20 33 28 47 20 167 119 331 273 39 37 93 86 119 110 58 52 96 87 213
194 49 45 170 154 269 244 277 251 351 318 515 473 45 42 90 81 99 86 9 5 41
34 71 63 30 30 107 99 170 153 63 54 117 101 120 105 3 3 38 34 78 68 71 61
92 72 92 52z m-4474 -327 c28 -32 59 -71 70 -88 10 -16 25 -36 32 -44 7 -7 39
-47 70 -88 31 -41 72 -94 89 -117 18 -22 44 -58 58 -78 81 -120 217 -288 248
-305 46 -26 175 -7 317 46 110 41 426 91 590 94 58 1 152 0 210 -2 151 -5 198
15 307 125 45 45 92 88 105 95 13 6 39 25 59 40 38 30 78 38 80 17 3 -33 -4
-68 -26 -128 -13 -36 -29 -90 -35 -120 -7 -30 -27 -93 -45 -140 -18 -47 -47
-127 -64 -178 -32 -94 -75 -163 -135 -214 -54 -47 -66 -35 -66 67 0 59 -2 65
-34 93 -22 19 -67 40 -121 57 -82 26 -92 27 -268 23 -184 -5 -237 -13 -471
-74 -82 -22 -205 -87 -242 -129 -42 -48 -47 -77 -23 -158 27 -91 17 -103 -58
-71 -100 42 -119 55 -153 107 -19 28 -42 61 -51 72 -10 11 -39 58 -65 105 -26
47 -60 108 -76 135 -15 28 -48 88 -71 135 -24 47 -49 94 -55 105 -19 35 -40
89 -47 122 -4 18 -17 54 -29 80 -13 26 -33 80 -45 120 -12 40 -31 90 -42 113
-35 72 -87 240 -75 240 6 0 34 -26 62 -57z m-808 -1312 c20 -10 59 -23 86 -30
27 -7 68 -23 90 -36 23 -13 68 -32 102 -43 34 -11 85 -31 115 -45 30 -13 72
-30 94 -37 22 -7 72 -27 110 -45 39 -18 92 -40 119 -49 27 -9 62 -28 77 -41
16 -13 39 -27 51 -31 21 -6 81 -49 116 -82 8 -7 28 -20 45 -29 18 -9 47 -29
65 -44 18 -16 37 -29 43 -29 5 0 37 -23 70 -50 33 -28 72 -56 87 -64 15 -8 38
-26 51 -40 14 -14 29 -26 35 -26 21 -1 88 -71 82 -87 -14 -36 -294 26 -416 91
-30 16 -73 39 -95 50 -22 10 -47 25 -56 33 -24 20 -130 83 -140 83 -5 0 -23
13 -41 29 -18 15 -44 32 -58 36 -14 4 -50 27 -80 50 -30 22 -69 50 -87 61 -62
37 -201 135 -213 149 -7 8 -18 15 -24 15 -6 0 -27 13 -46 28 -19 16 -60 45
-90 65 -30 20 -67 47 -82 59 -15 13 -39 31 -53 41 -51 37 -20 50 43 18z m3647
-1136 c32 -20 64 -43 72 -53 33 -41 53 -99 53 -157 0 -113 -8 -134 -72 -194
-69 -65 -101 -79 -183 -80 -76 -1 -128 22 -179 79 -87 96 -101 186 -45 296 51
102 115 141 235 143 52 1 68 -4 119 -34z m-1225 -20 c27 -14 66 -54 93 -95 21
-30 23 -163 5 -207 -15 -33 -78 -93 -125 -117 -91 -46 -238 17 -294 126 -22
42 -26 136 -8 171 19 37 79 106 102 119 54 29 174 31 227 3z m-1302 -599 c2
-10 -8 -34 -21 -54 -14 -20 -33 -57 -43 -82 -9 -25 -23 -52 -30 -60 -17 -20
-34 -99 -24 -105 5 -3 11 -1 15 5 14 22 87 51 114 45 24 -5 38 4 109 72 102
99 180 163 198 163 19 0 18 -34 -2 -50 -8 -8 -27 -34 -42 -59 -14 -25 -38 -62
-54 -81 -15 -19 -28 -40 -28 -48 0 -7 -20 -34 -45 -60 -25 -26 -45 -50 -45
-54 0 -4 -20 -19 -44 -33 -23 -14 -51 -34 -61 -45 -20 -22 -55 -26 -72 -9 -8
8 -28 -4 -74 -45 -88 -77 -94 -82 -123 -101 -48 -32 -73 0 -40 50 9 14 12 25
6 25 -6 0 -21 -17 -33 -37 -12 -21 -35 -53 -51 -71 -15 -18 -28 -37 -28 -43 0
-17 -64 -98 -75 -95 -20 6 -15 48 18 153 20 59 38 131 42 158 7 49 22 93 51
147 8 15 10 29 5 32 -15 10 -106 -13 -162 -40 -67 -33 -104 -21 -61 19 58 55
125 107 137 107 7 0 28 13 46 29 37 34 268 151 299 151 11 0 37 9 57 20 42 22
56 21 61 -4z"/>
</g>
</svg>
